<svg width="61" height="61" viewBox="0 0 61 61" fill="none" xmlns="http://www.w3.org/2000/svg">
<mask id="mask0_51_748" style="mask-type:luminance" maskUnits="userSpaceOnUse" x="13" y="13" width="34" height="36">
<path fill-rule="evenodd" clip-rule="evenodd" d="M13.4167 13.4175H46.3617V48.8159H13.4167V13.4175Z" fill="white"/>
</mask>
<g mask="url(#mask0_51_748)">
<path fill-rule="evenodd" clip-rule="evenodd" d="M22.3038 39.7942C22.695 39.7942 23.0862 39.8437 23.4689 39.9462C24.6237 40.2571 25.6265 41.0293 26.221 42.0663C26.6071 42.7171 26.8206 43.4774 26.8275 44.2529C26.8275 45.3633 27.7192 46.2534 28.816 46.2534H30.9565C32.0481 46.2534 32.9399 45.3685 32.945 44.2768C32.9382 43.0708 33.4097 41.9245 34.2724 41.0618C35.1231 40.211 36.3121 39.7002 37.5011 39.7344C38.2801 39.7532 39.0301 39.9633 39.6912 40.3391C40.6428 40.8841 41.8574 40.5595 42.4075 39.6199L43.5418 37.7288C43.7946 37.2932 43.8681 36.7465 43.7331 36.2426C43.5999 35.7386 43.265 35.3013 42.814 35.0433C41.7583 34.4351 41.0049 33.4546 40.6923 32.2792C40.3831 31.1261 40.5522 29.8671 41.1553 28.8301C41.5482 28.1468 42.1239 27.5711 42.814 27.1747C43.74 26.6332 44.0645 25.422 43.5264 24.479C43.5042 24.4414 43.4837 24.4021 43.4666 24.3611L42.4655 22.6254C41.9206 21.6773 40.7077 21.351 39.7561 21.8926C38.7277 22.5007 37.5045 22.675 36.3292 22.3658C35.1556 22.0617 34.1716 21.3186 33.5583 20.2696C33.1654 19.6136 32.9518 18.85 32.945 18.0727C32.9604 17.4885 32.7554 16.964 32.383 16.5796C32.0123 16.197 31.4912 15.98 30.9565 15.98H28.816C28.2864 15.98 27.791 16.1867 27.4168 16.5591C27.0444 16.9333 26.8411 17.4304 26.8446 17.96C26.8087 20.4576 24.7672 22.4683 22.2953 22.4683C21.5026 22.4597 20.739 22.2462 20.0761 21.8499C19.1451 21.3203 17.9288 21.6466 17.3838 22.5947L16.2273 24.4961C15.6977 25.4151 16.0223 26.6298 16.9653 27.1781C18.3644 27.9879 19.2373 29.4981 19.2373 31.1176C19.2373 32.7371 18.3644 34.2455 16.9618 35.057C16.024 35.6002 15.6994 36.808 16.2426 37.7476L17.3206 39.6063C17.5871 40.0863 18.0227 40.4331 18.5267 40.5749C19.0289 40.715 19.5824 40.6552 20.0437 40.3989C20.7219 40.0009 21.5111 39.7942 22.3038 39.7942ZM30.9565 48.8159H28.816C26.3064 48.8159 24.265 46.7761 24.265 44.2666C24.2616 43.9574 24.1727 43.6362 24.007 43.3578C23.7388 42.8897 23.3049 42.5548 22.8043 42.4216C22.3072 42.2883 21.7623 42.3618 21.3147 42.6215C20.2418 43.2194 18.9794 43.3646 17.8246 43.04C16.6714 42.7137 15.6755 41.9211 15.0912 40.8704L14.0235 39.0306C12.7747 36.8644 13.5178 34.0884 15.6806 32.8379C16.2939 32.4842 16.6748 31.8248 16.6748 31.1176C16.6748 30.4103 16.2939 29.7492 15.6806 29.3956C13.5161 28.1382 12.7747 25.3554 14.0218 23.1892L15.1801 21.2878C16.4118 19.1456 19.1963 18.3905 21.3676 19.6376C21.6632 19.8135 21.9843 19.9024 22.3106 19.9058C23.3749 19.9058 24.265 19.0277 24.2821 17.948C24.2752 16.7573 24.745 15.6144 25.6009 14.7517C26.4602 13.8907 27.6013 13.4175 28.816 13.4175H30.9565C32.1797 13.4175 33.3687 13.9198 34.2211 14.7927C35.0719 15.6708 35.5417 16.8752 35.5058 18.0966C35.5092 18.3717 35.5998 18.6894 35.7638 18.9679C36.0354 19.4291 36.4642 19.7537 36.9733 19.887C37.4823 20.0134 38.0153 19.9451 38.4681 19.6769C40.6547 18.4281 43.4376 19.1763 44.6864 21.3459L45.7507 23.1892C45.778 23.2387 45.8019 23.2866 45.8224 23.3361C46.9533 25.4732 46.1983 28.1638 44.097 29.3921C43.7912 29.5681 43.5435 29.8141 43.3727 30.1114C43.1079 30.5709 43.0344 31.1176 43.1677 31.6198C43.3043 32.1323 43.6306 32.5577 44.0902 32.8208C45.1271 33.417 45.901 34.4215 46.2102 35.5814C46.5194 36.7397 46.3503 37.997 45.7473 39.034L44.6129 40.9234C43.3641 43.0691 40.5813 43.8122 38.4168 42.5617C38.1281 42.396 37.795 42.3054 37.4636 42.2969H37.4533C36.9596 42.2969 36.4522 42.507 36.0832 42.8743C35.7091 43.2484 35.5041 43.7473 35.5075 44.2768C35.4956 46.7864 33.4541 48.8159 30.9565 48.8159Z" fill="#F1F8FC"/>
</g>
<path fill-rule="evenodd" clip-rule="evenodd" d="M29.8938 27.8941C28.1171 27.8941 26.6719 29.3411 26.6719 31.1177C26.6719 32.8944 28.1171 34.3379 29.8938 34.3379C31.6705 34.3379 33.1157 32.8944 33.1157 31.1177C33.1157 29.3411 31.6705 27.8941 29.8938 27.8941ZM29.8938 36.9004C26.7043 36.9004 24.1094 34.3072 24.1094 31.1177C24.1094 27.9283 26.7043 25.3316 29.8938 25.3316C33.0833 25.3316 35.6782 27.9283 35.6782 31.1177C35.6782 34.3072 33.0833 36.9004 29.8938 36.9004Z" fill="#F1F8FC"/>
</svg>
