<svg width="73" height="73" viewBox="0 0 73 73" fill="none" xmlns="http://www.w3.org/2000/svg">
<g clip-path="url(#clip0_224_3249)">
<rect width="73" height="73" rx="36.5" fill="white"/>
<circle cx="36.5" cy="36.5" r="36.5" fill="#DEF4FF"/>
<path d="M52.0707 28.1992C52.0707 28.1992 54.6549 27.8853 54.8885 30.3454C55.1221 32.8055 54.2972 34.6962 52.7642 35.5138C52.7642 35.5138 52.4357 35.6744 51.6838 35.8058L52.0707 28.2065V28.1992Z" fill="#FFB69F"/>
<path d="M22.8342 28.1992C22.8342 28.1992 20.25 27.8853 20.0164 30.3454C19.7828 32.8055 20.6077 34.6962 22.1407 35.5138C22.1407 35.5138 22.4692 35.6744 23.2211 35.8058L22.8342 28.2065V28.1992Z" fill="#FFB69F"/>
<path d="M2.18994 76.4535C2.18994 76.4535 2.18994 66.1313 8.23434 64.0946C14.2787 62.0579 27.937 54.2396 27.937 54.2396H37.1788V76.4535H2.18994Z" fill="#F49037"/>
<path d="M71.598 76.4535C71.598 76.4535 71.598 66.1313 65.5536 64.0946C59.5092 62.0579 45.9969 54.2396 45.9969 54.2396H36.6091V76.4535H71.598Z" fill="#F49037"/>
<path d="M30.2367 47.0993L29.3826 54.2387H44.406L43.4716 47.0993H30.2367Z" fill="#FFB69F"/>
<path d="M36.8943 58.5102C41.0429 58.5102 44.406 57.0493 44.406 55.2471C44.406 53.4449 41.0429 51.984 36.8943 51.984C32.7457 51.984 29.3826 53.4449 29.3826 55.2471C29.3826 57.0493 32.7457 58.5102 36.8943 58.5102Z" fill="#FFB69F"/>
<path d="M29.667 51.8733C29.667 51.8733 39.9235 52.815 43.537 48.3182V43.1498L30.5357 44.3981L29.667 51.8733Z" fill="#FF9988"/>
<path d="M37.5075 49.1727C45.7764 49.1727 52.4798 40.6032 52.4798 30.0321C52.4798 19.4611 45.7764 10.8915 37.5075 10.8915C29.2385 10.8915 22.5352 19.4611 22.5352 30.0321C22.5352 40.6032 29.2385 49.1727 37.5075 49.1727Z" fill="#FFB69F"/>
<path d="M50.5817 14.7466C50.5817 14.7466 50.5963 14.7101 50.5817 14.6882C50.0853 13.4983 49.4794 7.51958 39.7412 6.61438C37.2446 6.38078 33.6749 6.79688 31.4119 7.87728C28.3094 9.35188 24.8419 10.1987 21.7759 10.1914C21.6445 10.1914 21.5934 10.3666 21.7102 10.4323L24.1046 12.3376C24.1995 12.3887 24.1922 12.5274 24.09 12.5712L21.0824 13.4837C20.9729 13.5275 20.9729 13.6881 21.0824 13.7246C21.5715 13.8852 22.8125 14.4327 23.9367 14.8196C22.0971 18.0754 22.5205 22.7547 22.5205 28.3757C22.5205 28.3757 22.4621 34.2011 24.4258 40.8806C26.572 48.1806 31.2805 51.3123 37.9162 51.3342C44.9826 51.3634 48.6691 45.3044 49.6546 43.1509C51.1584 39.8513 52.4505 33.7193 52.4578 30.0328C52.4578 30.0328 55.1734 20.718 50.5671 14.7466H50.5817ZM44.5811 41.7931C43.1211 42.5377 43.8584 38.6614 40.953 38.5008C39.9821 38.4424 36.6825 38.2161 33.9085 38.4497C31.7988 38.6322 31.2878 40.5302 31.1929 41.4938C31.1491 41.9099 31.0031 42.0997 30.6089 41.9537C29.7329 41.6325 27.8714 40.5959 26.9954 39.6323C26.0902 38.6395 24.455 35.9604 24.3017 30.3029L24.4623 22.2218C24.4623 22.2218 27.7108 19.4989 28.2729 17.5644C28.2729 17.5644 42.7853 19.8858 46.9901 17.5644C46.9901 17.5644 48.7494 20.9297 50.6693 21.9444C51.2606 22.251 51.1584 26.0908 51.1073 28.7407C51.0562 29.0984 51.0124 29.5072 50.9905 29.989C50.6036 37.5591 46.0265 41.0558 44.5738 41.8004L44.5811 41.7931Z" fill="#B54D4D"/>
<path d="M44.5813 31.5645C45.0691 31.5645 45.4646 30.8782 45.4646 30.0315C45.4646 29.1849 45.0691 28.4985 44.5813 28.4985C44.0935 28.4985 43.698 29.1849 43.698 30.0315C43.698 30.8782 44.0935 31.5645 44.5813 31.5645Z" fill="#441D39"/>
<path d="M31.3315 31.2508C31.8194 31.2508 32.2148 30.5645 32.2148 29.7178C32.2148 28.8712 31.8194 28.1848 31.3315 28.1848C30.8437 28.1848 30.4482 28.8712 30.4482 29.7178C30.4482 30.5645 30.8437 31.2508 31.3315 31.2508Z" fill="#441D39"/>
<path d="M38.5368 36.9234H37.1425C36.522 36.9234 35.9745 36.6825 35.6825 36.281C35.4708 35.9963 35.4124 35.6605 35.5146 35.332C35.8285 34.3246 36.2373 30.5651 36.2373 30.5286C36.2592 30.3242 36.4344 30.1855 36.6388 30.2074C36.8359 30.2293 36.9819 30.4118 36.96 30.6089C36.9454 30.7695 36.5366 34.4706 36.2081 35.551C36.1789 35.6605 36.1935 35.7554 36.2665 35.8576C36.4198 36.062 36.7629 36.2007 37.1425 36.2007H38.5368C38.7412 36.2007 38.9018 36.3613 38.9018 36.5657C38.9018 36.7701 38.7412 36.9307 38.5368 36.9307V36.9234Z" fill="#FF9988"/>
<path d="M45.3546 33.9667C46.7616 33.9667 47.9023 33.7052 47.9023 33.3827C47.9023 33.0601 46.7616 32.7987 45.3546 32.7987C43.9475 32.7987 42.8069 33.0601 42.8069 33.3827C42.8069 33.7052 43.9475 33.9667 45.3546 33.9667Z" fill="#FF9988"/>
<path d="M30.4845 33.9667C31.8915 33.9667 33.0322 33.7052 33.0322 33.3827C33.0322 33.0601 31.8915 32.7987 30.4845 32.7987C29.0774 32.7987 27.9368 33.0601 27.9368 33.3827C27.9368 33.7052 29.0774 33.9667 30.4845 33.9667Z" fill="#FF9988"/>
<path d="M47.6759 26.4692C45.245 25.7538 43.3835 26.2064 42.252 26.3524C41.7702 26.4108 41.668 25.8195 41.668 25.8195C41.5731 25.418 42.1133 25.1406 42.4929 25.0676C43.7704 24.834 45.4056 24.7172 47.8292 25.5567C48.2964 25.7173 48.3256 26.1115 48.3256 26.1115C48.2745 26.5495 47.9971 26.5568 47.6759 26.4619V26.4692Z" fill="#B54D4D"/>
<path d="M28.1048 26.514C30.5211 25.7548 32.3899 26.1782 33.5214 26.3023C34.0032 26.3534 34.0981 25.7621 34.0981 25.7621C34.1857 25.3606 33.6382 25.0905 33.2586 25.0248C31.9738 24.8131 30.3386 24.7182 27.9369 25.6015C27.4697 25.7694 27.4478 26.1636 27.4478 26.1636C27.5062 26.6016 27.7836 26.6016 28.0975 26.5067L28.1048 26.514Z" fill="#B54D4D"/>
<path d="M37.4271 42.8516C35.7043 42.8516 34.3319 42.4866 34.2443 42.4647C34.0472 42.4136 33.9377 42.2092 33.9888 42.0194C34.0399 41.8296 34.2443 41.7128 34.4341 41.7639C34.4706 41.7712 37.8286 42.6618 40.5369 41.6033C40.7267 41.5303 40.9384 41.6252 41.0114 41.8077C41.0844 41.9975 40.9895 42.2092 40.807 42.2822C39.6901 42.7202 38.4929 42.8589 37.4344 42.8589L37.4271 42.8516Z" fill="#9B3D3D"/>
<path d="M29.7038 51.9099L35.5146 56.0563L32.7041 62.7869L25.1851 55.7861L29.7038 51.9099Z" fill="#FFA242"/>
<path d="M35.5146 56.0563L35.865 58.5456L34.5437 58.3777L35.5146 56.0563Z" fill="#F49037"/>
<path d="M38.8289 55.9251L38.3179 58.5458L39.7487 58.3049L38.8289 55.9251Z" fill="#F49037"/>
<path d="M38.8289 55.9251L44.1506 52.0196L49.1365 56.02L41.7197 63.4295L38.8289 55.9251Z" fill="#FFA242"/>
<path d="M38.3102 59.5021H35.8647V76.4454H38.3102V59.5021Z" fill="white"/>
<path d="M35.8135 58.1963L35.8646 59.6855C35.8646 59.6855 37.0034 60.1819 38.3101 59.6855L38.3466 58.335L35.8062 58.189L35.8135 58.1963Z" fill="#FFB69F"/>
<path d="M38.3102 63.0794H35.8647V63.8094H38.3102V63.0794Z" fill="#D6D6D6"/>
<path d="M38.3102 66.3715H35.8647V67.1015H38.3102V66.3715Z" fill="#D6D6D6"/>
<path d="M38.3102 69.6637H35.8647V70.3937H38.3102V69.6637Z" fill="#D6D6D6"/>
<path d="M38.3102 72.9558H35.8647V73.6858H38.3102V72.9558Z" fill="#D6D6D6"/>
<path d="M40.3909 67.0803C40.7457 67.0803 41.0333 66.7927 41.0333 66.4379C41.0333 66.0831 40.7457 65.7955 40.3909 65.7955C40.0361 65.7955 39.7485 66.0831 39.7485 66.4379C39.7485 66.7927 40.0361 67.0803 40.3909 67.0803Z" fill="#FFA242"/>
<path d="M40.3909 74.2477C40.7457 74.2477 41.0333 73.9601 41.0333 73.6053C41.0333 73.2506 40.7457 72.9629 40.3909 72.9629C40.0361 72.9629 39.7485 73.2506 39.7485 73.6053C39.7485 73.9601 40.0361 74.2477 40.3909 74.2477Z" fill="#FFA242"/>
</g>
<defs>
<clipPath id="clip0_224_3249">
<rect width="73" height="73" rx="36.5" fill="white"/>
</clipPath>
</defs>
</svg>
