<svg width="61" height="61" viewBox="0 0 61 61" fill="none" xmlns="http://www.w3.org/2000/svg">
<path fill-rule="evenodd" clip-rule="evenodd" d="M40.5566 30.7503C39.9279 30.7503 39.3795 30.2873 39.289 29.6467C39.1916 28.9446 39.6785 28.2971 40.3806 28.1997C42.1573 27.9503 43.4983 26.4094 43.5018 24.6122C43.5018 22.8304 42.2239 21.3237 40.4626 21.035C39.7656 20.9205 39.2924 20.2611 39.4069 19.5624C39.523 18.8637 40.1773 18.3956 40.8795 18.5066C43.8827 19.0004 46.0643 21.5697 46.0643 24.6156C46.0574 27.6821 43.7665 30.3129 40.7343 30.7383C40.6745 30.7469 40.6147 30.7503 40.5566 30.7503Z" fill="white"/>
<mask id="mask0_207_2821" style="mask-type:luminance" maskUnits="userSpaceOnUse" x="42" y="33" width="7" height="9">
<path fill-rule="evenodd" clip-rule="evenodd" d="M42.4209 33.9195H48.9023V41.6575H42.4209V33.9195Z" fill="white"/>
</mask>
<g mask="url(#mask0_207_2821)">
<path fill-rule="evenodd" clip-rule="evenodd" d="M45.6382 41.6575C45.1222 41.6575 44.6354 41.3431 44.4406 40.8323C44.1878 40.1712 44.5209 39.4298 45.182 39.1787C46.3403 38.7379 46.3403 38.2511 46.3403 38.017C46.3403 37.2688 45.3887 36.746 43.513 36.4658C42.8143 36.3599 42.3308 35.7091 42.435 35.0069C42.5392 34.3065 43.1884 33.8401 43.8939 33.9307C48.0332 34.5508 48.9028 36.4949 48.9028 38.017C48.9028 38.9463 48.5372 40.6427 46.0943 41.5738C45.9439 41.6301 45.7902 41.6575 45.6382 41.6575Z" fill="white"/>
</g>
<path fill-rule="evenodd" clip-rule="evenodd" d="M30.3064 37.1864C26.2474 37.1864 21.4077 37.6853 21.4077 40.0598C21.4077 42.4532 26.2474 42.9555 30.3064 42.9555C34.3654 42.9555 39.2034 42.4583 39.2034 40.0889C39.2034 37.6904 34.3654 37.1864 30.3064 37.1864ZM30.3064 45.518C27.4723 45.518 18.8452 45.518 18.8452 40.0598C18.8452 34.6239 27.4723 34.6239 30.3064 34.6239C33.1405 34.6239 41.7659 34.6239 41.7659 40.0889C41.7659 45.518 33.4412 45.518 30.3064 45.518Z" fill="white"/>
<path fill-rule="evenodd" clip-rule="evenodd" d="M30.3064 19.3958C27.4159 19.3958 25.0653 21.7482 25.0653 24.6387C25.0601 26.0395 25.5965 27.3498 26.5788 28.339C27.5611 29.3281 28.8697 29.8765 30.2637 29.8816L30.3064 31.1628V29.8816C33.1969 29.8816 35.5493 27.5309 35.5493 24.6387C35.5493 21.7482 33.1969 19.3958 30.3064 19.3958ZM30.3064 32.4441H30.2603C28.1761 32.4372 26.2235 31.6207 24.7612 30.1447C23.2954 28.6704 22.4942 26.7126 22.5028 24.6336C22.5028 20.3354 26.0031 16.8333 30.3064 16.8333C34.6114 16.8333 38.1118 20.3354 38.1118 24.6387C38.1118 28.942 34.6114 32.4441 30.3064 32.4441Z" fill="white"/>
<path fill-rule="evenodd" clip-rule="evenodd" d="M20.0545 30.7503C19.9965 30.7503 19.9367 30.7469 19.8769 30.7383C16.8446 30.3129 14.5554 27.6821 14.5486 24.6191C14.5486 21.5697 16.7301 19.0004 19.7334 18.5066C20.4526 18.3939 21.0898 18.8671 21.206 19.5624C21.3204 20.2611 20.8472 20.9205 20.1502 21.035C18.3889 21.3237 17.1111 22.8304 17.1111 24.6156C17.1145 26.4094 18.4555 27.952 20.2305 28.1997C20.9326 28.2971 21.4195 28.9446 21.3221 29.6467C21.2316 30.2873 20.6832 30.7503 20.0545 30.7503Z" fill="white"/>
<path fill-rule="evenodd" clip-rule="evenodd" d="M14.9748 41.6575C14.8228 41.6575 14.669 41.6301 14.5187 41.5738C12.0741 40.641 11.7085 38.9446 11.7085 38.017C11.7085 36.4966 12.578 34.5508 16.719 33.9307C17.4246 33.8418 18.0703 34.3065 18.1762 35.0069C18.2805 35.7091 17.797 36.3599 17.0983 36.4658C15.2225 36.746 14.271 37.2688 14.271 38.017C14.271 38.2511 14.271 38.7362 15.431 39.1787C16.0921 39.4298 16.4252 40.1712 16.1724 40.8323C15.9776 41.3431 15.4907 41.6575 14.9748 41.6575Z" fill="white"/>
</svg>
