<svg width="61" height="61" viewBox="0 0 61 61" fill="none" xmlns="http://www.w3.org/2000/svg">
<path fill-rule="evenodd" clip-rule="evenodd" d="M22.165 40.0026C21.4578 40.0026 20.8838 39.4286 20.8838 38.7214V27.0022C20.8838 26.2949 21.4578 25.7209 22.165 25.7209C22.8723 25.7209 23.4463 26.2949 23.4463 27.0022V38.7214C23.4463 39.4286 22.8723 40.0026 22.165 40.0026Z" fill="white"/>
<path fill-rule="evenodd" clip-rule="evenodd" d="M30.1379 40.0009C29.4307 40.0009 28.8567 39.4269 28.8567 38.7196V21.392C28.8567 20.6848 29.4307 20.1108 30.1379 20.1108C30.8452 20.1108 31.4192 20.6848 31.4192 21.392V38.7196C31.4192 39.4269 30.8452 40.0009 30.1379 40.0009Z" fill="white"/>
<path fill-rule="evenodd" clip-rule="evenodd" d="M37.9797 40.0009C37.2725 40.0009 36.6985 39.4269 36.6985 38.7196V33.1949C36.6985 32.4876 37.2725 31.9136 37.9797 31.9136C38.687 31.9136 39.261 32.4876 39.261 33.1949V38.7196C39.261 39.4269 38.687 40.0009 37.9797 40.0009Z" fill="white"/>
<path fill-rule="evenodd" clip-rule="evenodd" d="M22.0676 14.2708C17.3321 14.2708 14.2708 17.5115 14.2708 22.5306V37.6152C14.2708 42.6343 17.3321 45.875 22.0676 45.875H38.0781C42.8153 45.875 45.8749 42.6343 45.8749 37.6152V22.5306C45.8749 17.5115 42.8153 14.2708 38.0781 14.2708H22.0676ZM38.0781 48.4375H22.0676C15.8715 48.4375 11.7083 44.0881 11.7083 37.6152V22.5306C11.7083 16.0577 15.8715 11.7083 22.0676 11.7083H38.0781C44.2742 11.7083 48.4374 16.0577 48.4374 22.5306V37.6152C48.4374 44.0881 44.2742 48.4375 38.0781 48.4375Z" fill="white"/>
</svg>
