<svg width="61" height="61" viewBox="0 0 61 61" fill="none" xmlns="http://www.w3.org/2000/svg">
<path fill-rule="evenodd" clip-rule="evenodd" d="M30.0728 37.5969C29.3655 37.5969 28.7915 37.0229 28.7915 36.3157V23.7987C28.7915 23.0915 29.3655 22.5175 30.0728 22.5175C30.78 22.5175 31.354 23.0915 31.354 23.7987V36.3157C31.354 37.0229 30.78 37.5969 30.0728 37.5969Z" fill="white"/>
<path fill-rule="evenodd" clip-rule="evenodd" d="M36.3365 31.3374H23.8093C23.1004 31.3374 22.5281 30.7634 22.5281 30.0562C22.5281 29.3489 23.1004 28.7749 23.8093 28.7749H36.3365C37.0438 28.7749 37.6178 29.3489 37.6178 30.0562C37.6178 30.7634 37.0438 31.3374 36.3365 31.3374Z" fill="white"/>
<path fill-rule="evenodd" clip-rule="evenodd" d="M22.0676 14.2708C17.3321 14.2708 14.2708 17.5115 14.2708 22.5306V37.6152C14.2708 42.6343 17.3321 45.875 22.0676 45.875H38.0781C42.8153 45.875 45.8749 42.6343 45.8749 37.6152V22.5306C45.8749 17.5115 42.8153 14.2708 38.0781 14.2708H22.0676ZM38.0781 48.4375H22.0676C15.8715 48.4375 11.7083 44.0881 11.7083 37.6152V22.5306C11.7083 16.0577 15.8715 11.7083 22.0676 11.7083H38.0781C44.2742 11.7083 48.4374 16.0577 48.4374 22.5306V37.6152C48.4374 44.0881 44.2742 48.4375 38.0781 48.4375Z" fill="white"/>
</svg>
