<svg width="61" height="61" viewBox="0 0 61 61" fill="none" xmlns="http://www.w3.org/2000/svg">
<mask id="mask0_207_2825" style="mask-type:luminance" maskUnits="userSpaceOnUse" x="13" y="11" width="36" height="38">
<path fill-rule="evenodd" clip-rule="evenodd" d="M13.4166 11.7087H48.4371V48.4464H13.4166V11.7087Z" fill="white"/>
</mask>
<g mask="url(#mask0_207_2825)">
<path fill-rule="evenodd" clip-rule="evenodd" d="M33.4329 36.1226C35.4898 36.1226 37.1639 37.7848 37.1639 39.828V45.0828C37.1639 45.5219 37.5158 45.8738 37.9668 45.884H41.2229C43.7888 45.884 45.8747 43.8238 45.8747 41.2921V26.3886C45.8628 25.5173 45.4476 24.6973 44.7353 24.1523L33.4722 15.1699C31.9603 13.9724 29.8454 13.9724 28.3284 15.1733L17.1423 24.1489C16.4025 24.711 15.9874 25.531 15.9789 26.4176V41.2921C15.9789 43.8238 18.0648 45.884 20.6307 45.884H23.9175C24.3805 45.884 24.7563 45.5168 24.7563 45.0658C24.7563 44.9667 24.7683 44.8676 24.7888 44.7736V39.828C24.7888 37.7968 26.4527 36.1363 28.4941 36.1226H33.4329ZM41.2229 48.4466H37.9361C36.0535 48.4021 34.6014 46.9244 34.6014 45.0828V39.828C34.6014 39.1976 34.077 38.6851 33.4329 38.6851H28.5027C27.8723 38.6886 27.3513 39.2028 27.3513 39.828V45.0658C27.3513 45.1939 27.3342 45.3169 27.2983 45.4331C27.1138 47.1243 25.6685 48.4466 23.9175 48.4466H20.6307C16.652 48.4466 13.4164 45.2366 13.4164 41.292V26.4056C13.4335 24.7076 14.2159 23.153 15.5672 22.1297L26.7311 13.1695C29.1894 11.222 32.6146 11.222 35.0678 13.1661L46.312 22.1348C47.6326 23.141 48.415 24.6922 48.4372 26.3698V41.292C48.4372 45.2366 45.2016 48.4466 41.2229 48.4466Z" fill="white"/>
</g>
</svg>
