<svg width="61" height="61" viewBox="0 0 61 61" fill="none" xmlns="http://www.w3.org/2000/svg">
<path fill-rule="evenodd" clip-rule="evenodd" d="M27.2203 41.7627H16.4561C15.7488 41.7627 15.1748 41.1887 15.1748 40.4815C15.1748 39.7742 15.7488 39.2002 16.4561 39.2002H27.2203C27.9275 39.2002 28.5015 39.7742 28.5015 40.4815C28.5015 41.1887 27.9275 41.7627 27.2203 41.7627Z" fill="white"/>
<path fill-rule="evenodd" clip-rule="evenodd" d="M42.7845 25.2048H32.022C31.3147 25.2048 30.7407 24.6308 30.7407 23.9236C30.7407 23.2163 31.3147 22.6423 32.022 22.6423H42.7845C43.4917 22.6423 44.0657 23.2163 44.0657 23.9236C44.0657 24.6308 43.4917 25.2048 42.7845 25.2048Z" fill="white"/>
<mask id="mask0_207_2823" style="mask-type:luminance" maskUnits="userSpaceOnUse" x="15" y="18" width="11" height="12">
<path fill-rule="evenodd" clip-rule="evenodd" d="M15.125 18.5424H25.7607V29.1197H15.125V18.5424Z" fill="white"/>
</mask>
<g mask="url(#mask0_207_2823)">
<path fill-rule="evenodd" clip-rule="evenodd" d="M20.4428 21.1042C18.9241 21.1042 17.6873 22.3273 17.6873 23.8324C17.6873 25.3357 18.9241 26.5572 20.4428 26.5572C21.9632 26.5572 23.1983 25.3357 23.1983 23.8324C23.1983 22.3273 21.9632 21.1042 20.4428 21.1042ZM20.4428 29.1197C17.5113 29.1197 15.1248 26.7485 15.1248 23.8324C15.1248 20.9163 17.5113 18.5417 20.4428 18.5417C23.376 18.5417 25.7608 20.9163 25.7608 23.8324C25.7608 26.7485 23.376 29.1197 20.4428 29.1197Z" fill="white"/>
</g>
<path fill-rule="evenodd" clip-rule="evenodd" d="M39.704 37.6887C38.1836 37.6887 36.9468 38.9118 36.9468 40.4152C36.9468 41.9202 38.1836 43.1417 39.704 43.1417C41.2227 43.1417 42.4579 41.9202 42.4579 40.4152C42.4579 38.9118 41.2227 37.6887 39.704 37.6887ZM39.704 45.7042C36.7708 45.7042 34.3843 43.3313 34.3843 40.4152C34.3843 37.499 36.7708 35.1262 39.704 35.1262C42.6355 35.1262 45.0204 37.499 45.0204 40.4152C45.0204 43.3313 42.6355 45.7042 39.704 45.7042Z" fill="white"/>
</svg>
